<mxfile host="app.diagrams.net" agent="Mozilla/5.0 (Windows NT 10.0; Win64; x64) AppleWebKit/537.36 (KHTML, like Gecko) Chrome/128.0.0.0 Safari/537.36" version="24.7.10">
  <diagram id="R2lEEEUBdFMjLlhIrx00" name="Page-1">
    <mxGraphModel dx="2012" dy="2027" grid="1" gridSize="10" guides="1" tooltips="1" connect="1" arrows="1" fold="1" page="1" pageScale="1" pageWidth="850" pageHeight="1100" math="0" shadow="0" extFonts="Permanent Marker^https://fonts.googleapis.com/css?family=Permanent+Marker">
      <root>
        <mxCell id="0" />
        <mxCell id="1" parent="0" />
        <mxCell id="l81J1AIuOaPKeWYcrtHB-1" value="Referencias" style="whiteSpace=wrap;html=1;align=center;fillColor=#cce5ff;strokeColor=#36393d;" vertex="1" parent="1">
          <mxGeometry x="360" y="620" width="100" height="40" as="geometry" />
        </mxCell>
        <mxCell id="l81J1AIuOaPKeWYcrtHB-2" value="Comercio" style="whiteSpace=wrap;html=1;align=center;fillColor=#cce5ff;strokeColor=#36393d;" vertex="1" parent="1">
          <mxGeometry x="720" y="100" width="100" height="40" as="geometry" />
        </mxCell>
        <mxCell id="l81J1AIuOaPKeWYcrtHB-3" value="Tarjetas" style="whiteSpace=wrap;html=1;align=center;fillColor=#cce5ff;strokeColor=#36393d;" vertex="1" parent="1">
          <mxGeometry x="720" y="350" width="100" height="40" as="geometry" />
        </mxCell>
        <mxCell id="l81J1AIuOaPKeWYcrtHB-4" value="Movimientos_cta" style="whiteSpace=wrap;html=1;align=center;fillColor=#cce5ff;strokeColor=#36393d;" vertex="1" parent="1">
          <mxGeometry y="130" width="100" height="40" as="geometry" />
        </mxCell>
        <mxCell id="l81J1AIuOaPKeWYcrtHB-5" value="Cuentas" style="whiteSpace=wrap;html=1;align=center;fillColor=#cce5ff;strokeColor=#36393d;" vertex="1" parent="1">
          <mxGeometry y="350" width="100" height="40" as="geometry" />
        </mxCell>
        <mxCell id="l81J1AIuOaPKeWYcrtHB-6" value="Cliente" style="whiteSpace=wrap;html=1;align=center;fillColor=#cce5ff;strokeColor=#36393d;" vertex="1" parent="1">
          <mxGeometry x="360" y="350" width="100" height="40" as="geometry" />
        </mxCell>
        <mxCell id="l81J1AIuOaPKeWYcrtHB-7" value="Realiza" style="shape=rhombus;perimeter=rhombusPerimeter;whiteSpace=wrap;html=1;align=center;fillColor=#ffcccc;strokeColor=#36393d;" vertex="1" parent="1">
          <mxGeometry x="530" y="90" width="120" height="60" as="geometry" />
        </mxCell>
        <mxCell id="l81J1AIuOaPKeWYcrtHB-8" value="Solicita" style="shape=rhombus;perimeter=rhombusPerimeter;whiteSpace=wrap;html=1;align=center;fillColor=#ffcccc;strokeColor=#36393d;" vertex="1" parent="1">
          <mxGeometry x="530" y="340" width="120" height="60" as="geometry" />
        </mxCell>
        <mxCell id="l81J1AIuOaPKeWYcrtHB-9" value="Generar" style="shape=rhombus;perimeter=rhombusPerimeter;whiteSpace=wrap;html=1;align=center;fillColor=#ffcccc;strokeColor=#36393d;" vertex="1" parent="1">
          <mxGeometry x="-10" y="220" width="120" height="60" as="geometry" />
        </mxCell>
        <mxCell id="l81J1AIuOaPKeWYcrtHB-10" value="Especifica" style="shape=rhombus;perimeter=rhombusPerimeter;whiteSpace=wrap;html=1;align=center;fillColor=#ffcccc;strokeColor=#36393d;" vertex="1" parent="1">
          <mxGeometry x="710" y="230" width="120" height="60" as="geometry" />
        </mxCell>
        <mxCell id="l81J1AIuOaPKeWYcrtHB-12" value="Abre" style="shape=rhombus;perimeter=rhombusPerimeter;whiteSpace=wrap;html=1;align=center;fillColor=#ffcccc;strokeColor=#36393d;" vertex="1" parent="1">
          <mxGeometry x="170" y="340" width="120" height="60" as="geometry" />
        </mxCell>
        <mxCell id="l81J1AIuOaPKeWYcrtHB-13" value="Tienen" style="shape=rhombus;perimeter=rhombusPerimeter;whiteSpace=wrap;html=1;align=center;fillColor=#ffcccc;strokeColor=#36393d;" vertex="1" parent="1">
          <mxGeometry x="350" y="470" width="120" height="60" as="geometry" />
        </mxCell>
        <mxCell id="l81J1AIuOaPKeWYcrtHB-16" value="" style="endArrow=none;html=1;rounded=0;exitX=1;exitY=0.5;exitDx=0;exitDy=0;entryX=0;entryY=0.5;entryDx=0;entryDy=0;" edge="1" parent="1" source="l81J1AIuOaPKeWYcrtHB-6" target="l81J1AIuOaPKeWYcrtHB-8">
          <mxGeometry relative="1" as="geometry">
            <mxPoint x="480" y="380" as="sourcePoint" />
            <mxPoint x="640" y="380" as="targetPoint" />
          </mxGeometry>
        </mxCell>
        <mxCell id="l81J1AIuOaPKeWYcrtHB-37" value="1" style="edgeLabel;html=1;align=center;verticalAlign=middle;resizable=0;points=[];" vertex="1" connectable="0" parent="l81J1AIuOaPKeWYcrtHB-16">
          <mxGeometry x="-0.7429" y="-2" relative="1" as="geometry">
            <mxPoint as="offset" />
          </mxGeometry>
        </mxCell>
        <mxCell id="l81J1AIuOaPKeWYcrtHB-17" value="" style="endArrow=none;html=1;rounded=0;exitX=0;exitY=0.5;exitDx=0;exitDy=0;entryX=1;entryY=0.5;entryDx=0;entryDy=0;" edge="1" parent="1" source="l81J1AIuOaPKeWYcrtHB-3" target="l81J1AIuOaPKeWYcrtHB-8">
          <mxGeometry relative="1" as="geometry">
            <mxPoint x="480" y="380" as="sourcePoint" />
            <mxPoint x="640" y="380" as="targetPoint" />
          </mxGeometry>
        </mxCell>
        <mxCell id="l81J1AIuOaPKeWYcrtHB-38" value="1" style="edgeLabel;html=1;align=center;verticalAlign=middle;resizable=0;points=[];" vertex="1" connectable="0" parent="l81J1AIuOaPKeWYcrtHB-17">
          <mxGeometry x="-0.5281" y="3" relative="1" as="geometry">
            <mxPoint as="offset" />
          </mxGeometry>
        </mxCell>
        <mxCell id="l81J1AIuOaPKeWYcrtHB-18" value="" style="endArrow=none;html=1;rounded=0;exitX=0.5;exitY=1;exitDx=0;exitDy=0;entryX=0.5;entryY=0;entryDx=0;entryDy=0;" edge="1" parent="1" source="l81J1AIuOaPKeWYcrtHB-10" target="l81J1AIuOaPKeWYcrtHB-3">
          <mxGeometry relative="1" as="geometry">
            <mxPoint x="480" y="380" as="sourcePoint" />
            <mxPoint x="640" y="380" as="targetPoint" />
          </mxGeometry>
        </mxCell>
        <mxCell id="l81J1AIuOaPKeWYcrtHB-39" value="1" style="edgeLabel;html=1;align=center;verticalAlign=middle;resizable=0;points=[];" vertex="1" connectable="0" parent="l81J1AIuOaPKeWYcrtHB-18">
          <mxGeometry x="0.6587" relative="1" as="geometry">
            <mxPoint as="offset" />
          </mxGeometry>
        </mxCell>
        <mxCell id="l81J1AIuOaPKeWYcrtHB-19" value="" style="endArrow=none;html=1;rounded=0;entryX=0.5;entryY=0;entryDx=0;entryDy=0;" edge="1" parent="1" source="l81J1AIuOaPKeWYcrtHB-2" target="l81J1AIuOaPKeWYcrtHB-10">
          <mxGeometry relative="1" as="geometry">
            <mxPoint x="800" y="200" as="sourcePoint" />
            <mxPoint x="640" y="380" as="targetPoint" />
          </mxGeometry>
        </mxCell>
        <mxCell id="l81J1AIuOaPKeWYcrtHB-40" value="N" style="edgeLabel;html=1;align=center;verticalAlign=middle;resizable=0;points=[];" vertex="1" connectable="0" parent="l81J1AIuOaPKeWYcrtHB-19">
          <mxGeometry x="-0.6905" relative="1" as="geometry">
            <mxPoint as="offset" />
          </mxGeometry>
        </mxCell>
        <mxCell id="l81J1AIuOaPKeWYcrtHB-20" value="" style="endArrow=none;html=1;rounded=0;exitX=1;exitY=0.5;exitDx=0;exitDy=0;entryX=0;entryY=0.5;entryDx=0;entryDy=0;" edge="1" parent="1" source="l81J1AIuOaPKeWYcrtHB-7" target="l81J1AIuOaPKeWYcrtHB-2">
          <mxGeometry relative="1" as="geometry">
            <mxPoint x="480" y="380" as="sourcePoint" />
            <mxPoint x="690" y="170" as="targetPoint" />
          </mxGeometry>
        </mxCell>
        <mxCell id="l81J1AIuOaPKeWYcrtHB-41" value="1" style="edgeLabel;html=1;align=center;verticalAlign=middle;resizable=0;points=[];" vertex="1" connectable="0" parent="l81J1AIuOaPKeWYcrtHB-20">
          <mxGeometry x="0.5758" y="1" relative="1" as="geometry">
            <mxPoint as="offset" />
          </mxGeometry>
        </mxCell>
        <mxCell id="l81J1AIuOaPKeWYcrtHB-22" value="" style="endArrow=none;html=1;rounded=0;entryX=0.5;entryY=1;entryDx=0;entryDy=0;" edge="1" parent="1" source="l81J1AIuOaPKeWYcrtHB-9" target="l81J1AIuOaPKeWYcrtHB-4">
          <mxGeometry relative="1" as="geometry">
            <mxPoint x="480" y="380" as="sourcePoint" />
            <mxPoint x="640" y="380" as="targetPoint" />
          </mxGeometry>
        </mxCell>
        <mxCell id="l81J1AIuOaPKeWYcrtHB-36" value="N" style="edgeLabel;html=1;align=center;verticalAlign=middle;resizable=0;points=[];" vertex="1" connectable="0" parent="l81J1AIuOaPKeWYcrtHB-22">
          <mxGeometry x="0.5821" y="-1" relative="1" as="geometry">
            <mxPoint as="offset" />
          </mxGeometry>
        </mxCell>
        <mxCell id="l81J1AIuOaPKeWYcrtHB-23" value="" style="endArrow=none;html=1;rounded=0;exitX=0.5;exitY=1;exitDx=0;exitDy=0;entryX=0.5;entryY=0;entryDx=0;entryDy=0;" edge="1" parent="1" source="l81J1AIuOaPKeWYcrtHB-9" target="l81J1AIuOaPKeWYcrtHB-5">
          <mxGeometry relative="1" as="geometry">
            <mxPoint x="480" y="380" as="sourcePoint" />
            <mxPoint x="640" y="380" as="targetPoint" />
          </mxGeometry>
        </mxCell>
        <mxCell id="l81J1AIuOaPKeWYcrtHB-35" value="1" style="edgeLabel;html=1;align=center;verticalAlign=middle;resizable=0;points=[];" vertex="1" connectable="0" parent="l81J1AIuOaPKeWYcrtHB-23">
          <mxGeometry x="0.6286" y="1" relative="1" as="geometry">
            <mxPoint as="offset" />
          </mxGeometry>
        </mxCell>
        <mxCell id="l81J1AIuOaPKeWYcrtHB-24" value="" style="endArrow=none;html=1;rounded=0;exitX=1;exitY=0.5;exitDx=0;exitDy=0;entryX=0;entryY=0.5;entryDx=0;entryDy=0;" edge="1" parent="1" source="l81J1AIuOaPKeWYcrtHB-5" target="l81J1AIuOaPKeWYcrtHB-12">
          <mxGeometry relative="1" as="geometry">
            <mxPoint x="300" y="380" as="sourcePoint" />
            <mxPoint x="460" y="380" as="targetPoint" />
          </mxGeometry>
        </mxCell>
        <mxCell id="l81J1AIuOaPKeWYcrtHB-34" value="1" style="edgeLabel;html=1;align=center;verticalAlign=middle;resizable=0;points=[];" vertex="1" connectable="0" parent="l81J1AIuOaPKeWYcrtHB-24">
          <mxGeometry x="-0.7626" relative="1" as="geometry">
            <mxPoint as="offset" />
          </mxGeometry>
        </mxCell>
        <mxCell id="l81J1AIuOaPKeWYcrtHB-26" value="" style="endArrow=none;html=1;rounded=0;exitX=1;exitY=0.5;exitDx=0;exitDy=0;entryX=0;entryY=0.5;entryDx=0;entryDy=0;" edge="1" parent="1" source="l81J1AIuOaPKeWYcrtHB-12" target="l81J1AIuOaPKeWYcrtHB-6">
          <mxGeometry relative="1" as="geometry">
            <mxPoint x="440" y="290" as="sourcePoint" />
            <mxPoint x="600" y="290" as="targetPoint" />
          </mxGeometry>
        </mxCell>
        <mxCell id="l81J1AIuOaPKeWYcrtHB-33" value="N" style="edgeLabel;html=1;align=center;verticalAlign=middle;resizable=0;points=[];" vertex="1" connectable="0" parent="l81J1AIuOaPKeWYcrtHB-26">
          <mxGeometry x="0.7448" y="-3" relative="1" as="geometry">
            <mxPoint as="offset" />
          </mxGeometry>
        </mxCell>
        <mxCell id="l81J1AIuOaPKeWYcrtHB-27" value="" style="endArrow=none;html=1;rounded=0;exitX=0.5;exitY=1;exitDx=0;exitDy=0;" edge="1" parent="1" source="l81J1AIuOaPKeWYcrtHB-6" target="l81J1AIuOaPKeWYcrtHB-13">
          <mxGeometry relative="1" as="geometry">
            <mxPoint x="440" y="290" as="sourcePoint" />
            <mxPoint x="600" y="290" as="targetPoint" />
          </mxGeometry>
        </mxCell>
        <mxCell id="l81J1AIuOaPKeWYcrtHB-32" value="N" style="edgeLabel;html=1;align=center;verticalAlign=middle;resizable=0;points=[];" vertex="1" connectable="0" parent="l81J1AIuOaPKeWYcrtHB-27">
          <mxGeometry x="-0.7111" y="-1" relative="1" as="geometry">
            <mxPoint as="offset" />
          </mxGeometry>
        </mxCell>
        <mxCell id="l81J1AIuOaPKeWYcrtHB-28" value="" style="endArrow=none;html=1;rounded=0;exitX=0.5;exitY=1;exitDx=0;exitDy=0;entryX=0.5;entryY=0;entryDx=0;entryDy=0;" edge="1" parent="1" source="l81J1AIuOaPKeWYcrtHB-13" target="l81J1AIuOaPKeWYcrtHB-1">
          <mxGeometry relative="1" as="geometry">
            <mxPoint x="440" y="290" as="sourcePoint" />
            <mxPoint x="600" y="290" as="targetPoint" />
          </mxGeometry>
        </mxCell>
        <mxCell id="l81J1AIuOaPKeWYcrtHB-31" value="N" style="edgeLabel;html=1;align=center;verticalAlign=middle;resizable=0;points=[];" vertex="1" connectable="0" parent="l81J1AIuOaPKeWYcrtHB-28">
          <mxGeometry x="0.7938" relative="1" as="geometry">
            <mxPoint as="offset" />
          </mxGeometry>
        </mxCell>
        <mxCell id="l81J1AIuOaPKeWYcrtHB-29" value="Movimientos_tarjeta" style="whiteSpace=wrap;html=1;align=center;fillColor=#cce5ff;strokeColor=#36393d;" vertex="1" parent="1">
          <mxGeometry x="320" y="100" width="130" height="40" as="geometry" />
        </mxCell>
        <mxCell id="l81J1AIuOaPKeWYcrtHB-43" value="Dni" style="ellipse;whiteSpace=wrap;html=1;align=center;fillColor=#ffff88;strokeColor=#36393d;" vertex="1" parent="1">
          <mxGeometry x="195" y="290" width="60" height="40" as="geometry" />
        </mxCell>
        <mxCell id="l81J1AIuOaPKeWYcrtHB-44" value="nacionalidad" style="ellipse;whiteSpace=wrap;html=1;align=center;fillColor=#ffff88;strokeColor=#36393d;" vertex="1" parent="1">
          <mxGeometry x="375" y="180" width="80" height="40" as="geometry" />
        </mxCell>
        <mxCell id="l81J1AIuOaPKeWYcrtHB-45" value="fecha_nacimiento" style="ellipse;whiteSpace=wrap;html=1;align=center;fillColor=#ffff88;strokeColor=#36393d;" vertex="1" parent="1">
          <mxGeometry x="530" y="230" width="105" height="40" as="geometry" />
        </mxCell>
        <mxCell id="l81J1AIuOaPKeWYcrtHB-46" value="tel_Celular" style="ellipse;whiteSpace=wrap;html=1;align=center;fillColor=#ffff88;strokeColor=#36393d;" vertex="1" parent="1">
          <mxGeometry x="470" y="190" width="80" height="40" as="geometry" />
        </mxCell>
        <mxCell id="l81J1AIuOaPKeWYcrtHB-47" value="tel_casa" style="ellipse;whiteSpace=wrap;html=1;align=center;fillColor=#ffff88;strokeColor=#36393d;" vertex="1" parent="1">
          <mxGeometry x="240" y="210" width="70" height="40" as="geometry" />
        </mxCell>
        <mxCell id="l81J1AIuOaPKeWYcrtHB-48" value="direccion" style="ellipse;whiteSpace=wrap;html=1;align=center;fillColor=#ffff88;strokeColor=#36393d;" vertex="1" parent="1">
          <mxGeometry x="550" y="290" width="100" height="40" as="geometry" />
        </mxCell>
        <mxCell id="l81J1AIuOaPKeWYcrtHB-49" value="apellidos" style="ellipse;whiteSpace=wrap;html=1;align=center;fillColor=#ffff88;strokeColor=#36393d;" vertex="1" parent="1">
          <mxGeometry x="210" y="250" width="70" height="40" as="geometry" />
        </mxCell>
        <mxCell id="l81J1AIuOaPKeWYcrtHB-50" value="nombres" style="ellipse;whiteSpace=wrap;html=1;align=center;fillColor=#ffff88;strokeColor=#36393d;" vertex="1" parent="1">
          <mxGeometry x="300" y="180" width="70" height="40" as="geometry" />
        </mxCell>
        <mxCell id="l81J1AIuOaPKeWYcrtHB-51" value="Dni" style="ellipse;whiteSpace=wrap;html=1;align=center;fillColor=#ffff88;strokeColor=#36393d;" vertex="1" parent="1">
          <mxGeometry x="180" y="620" width="100" height="40" as="geometry" />
        </mxCell>
        <mxCell id="l81J1AIuOaPKeWYcrtHB-52" value="nacionalidad" style="ellipse;whiteSpace=wrap;html=1;align=center;fillColor=#ffff88;strokeColor=#36393d;" vertex="1" parent="1">
          <mxGeometry x="540" y="620" width="100" height="40" as="geometry" />
        </mxCell>
        <mxCell id="l81J1AIuOaPKeWYcrtHB-53" value="fecha_nacimiento" style="ellipse;whiteSpace=wrap;html=1;align=center;fillColor=#ffff88;strokeColor=#36393d;" vertex="1" parent="1">
          <mxGeometry x="160" y="780" width="105" height="40" as="geometry" />
        </mxCell>
        <mxCell id="l81J1AIuOaPKeWYcrtHB-54" value="tel_Celular" style="ellipse;whiteSpace=wrap;html=1;align=center;fillColor=#ffff88;strokeColor=#36393d;" vertex="1" parent="1">
          <mxGeometry x="560" y="700" width="100" height="40" as="geometry" />
        </mxCell>
        <mxCell id="l81J1AIuOaPKeWYcrtHB-55" value="tel_casa" style="ellipse;whiteSpace=wrap;html=1;align=center;fillColor=#ffff88;strokeColor=#36393d;" vertex="1" parent="1">
          <mxGeometry x="140" y="700" width="100" height="40" as="geometry" />
        </mxCell>
        <mxCell id="l81J1AIuOaPKeWYcrtHB-56" value="direccion" style="ellipse;whiteSpace=wrap;html=1;align=center;fillColor=#ffff88;strokeColor=#36393d;" vertex="1" parent="1">
          <mxGeometry x="550" y="780" width="100" height="40" as="geometry" />
        </mxCell>
        <mxCell id="l81J1AIuOaPKeWYcrtHB-57" value="apellidos" style="ellipse;whiteSpace=wrap;html=1;align=center;fillColor=#ffff88;strokeColor=#36393d;" vertex="1" parent="1">
          <mxGeometry x="430" y="820" width="100" height="40" as="geometry" />
        </mxCell>
        <mxCell id="l81J1AIuOaPKeWYcrtHB-58" value="nombres" style="ellipse;whiteSpace=wrap;html=1;align=center;fillColor=#ffff88;strokeColor=#36393d;" vertex="1" parent="1">
          <mxGeometry x="285" y="820" width="100" height="40" as="geometry" />
        </mxCell>
        <mxCell id="l81J1AIuOaPKeWYcrtHB-59" value="" style="endArrow=none;html=1;rounded=0;exitX=1;exitY=0.5;exitDx=0;exitDy=0;" edge="1" parent="1" source="l81J1AIuOaPKeWYcrtHB-1" target="l81J1AIuOaPKeWYcrtHB-52">
          <mxGeometry relative="1" as="geometry">
            <mxPoint x="500" y="410" as="sourcePoint" />
            <mxPoint x="660" y="410" as="targetPoint" />
          </mxGeometry>
        </mxCell>
        <mxCell id="l81J1AIuOaPKeWYcrtHB-60" value="" style="endArrow=none;html=1;rounded=0;entryX=0.5;entryY=0;entryDx=0;entryDy=0;" edge="1" parent="1" source="l81J1AIuOaPKeWYcrtHB-44" target="l81J1AIuOaPKeWYcrtHB-6">
          <mxGeometry relative="1" as="geometry">
            <mxPoint x="500" y="410" as="sourcePoint" />
            <mxPoint x="660" y="410" as="targetPoint" />
          </mxGeometry>
        </mxCell>
        <mxCell id="l81J1AIuOaPKeWYcrtHB-61" value="" style="endArrow=none;html=1;rounded=0;entryX=0.5;entryY=0;entryDx=0;entryDy=0;" edge="1" parent="1" source="l81J1AIuOaPKeWYcrtHB-46" target="l81J1AIuOaPKeWYcrtHB-6">
          <mxGeometry relative="1" as="geometry">
            <mxPoint x="500" y="410" as="sourcePoint" />
            <mxPoint x="660" y="410" as="targetPoint" />
          </mxGeometry>
        </mxCell>
        <mxCell id="l81J1AIuOaPKeWYcrtHB-62" value="" style="endArrow=none;html=1;rounded=0;entryX=0.5;entryY=0;entryDx=0;entryDy=0;" edge="1" parent="1" source="l81J1AIuOaPKeWYcrtHB-48" target="l81J1AIuOaPKeWYcrtHB-6">
          <mxGeometry relative="1" as="geometry">
            <mxPoint x="500" y="410" as="sourcePoint" />
            <mxPoint x="660" y="410" as="targetPoint" />
          </mxGeometry>
        </mxCell>
        <mxCell id="l81J1AIuOaPKeWYcrtHB-63" value="" style="endArrow=none;html=1;rounded=0;entryX=0.5;entryY=0;entryDx=0;entryDy=0;" edge="1" parent="1" source="l81J1AIuOaPKeWYcrtHB-45" target="l81J1AIuOaPKeWYcrtHB-6">
          <mxGeometry relative="1" as="geometry">
            <mxPoint x="450" y="230" as="sourcePoint" />
            <mxPoint x="660" y="410" as="targetPoint" />
          </mxGeometry>
        </mxCell>
        <mxCell id="l81J1AIuOaPKeWYcrtHB-64" value="" style="endArrow=none;html=1;rounded=0;entryX=0.5;entryY=0;entryDx=0;entryDy=0;" edge="1" parent="1" source="l81J1AIuOaPKeWYcrtHB-50" target="l81J1AIuOaPKeWYcrtHB-6">
          <mxGeometry relative="1" as="geometry">
            <mxPoint x="500" y="410" as="sourcePoint" />
            <mxPoint x="660" y="410" as="targetPoint" />
          </mxGeometry>
        </mxCell>
        <mxCell id="l81J1AIuOaPKeWYcrtHB-65" value="" style="endArrow=none;html=1;rounded=0;entryX=0.5;entryY=0;entryDx=0;entryDy=0;" edge="1" parent="1" source="l81J1AIuOaPKeWYcrtHB-47" target="l81J1AIuOaPKeWYcrtHB-6">
          <mxGeometry relative="1" as="geometry">
            <mxPoint x="500" y="410" as="sourcePoint" />
            <mxPoint x="660" y="410" as="targetPoint" />
          </mxGeometry>
        </mxCell>
        <mxCell id="l81J1AIuOaPKeWYcrtHB-66" value="" style="endArrow=none;html=1;rounded=0;entryX=0.5;entryY=0;entryDx=0;entryDy=0;" edge="1" parent="1" source="l81J1AIuOaPKeWYcrtHB-49" target="l81J1AIuOaPKeWYcrtHB-6">
          <mxGeometry relative="1" as="geometry">
            <mxPoint x="500" y="410" as="sourcePoint" />
            <mxPoint x="660" y="410" as="targetPoint" />
          </mxGeometry>
        </mxCell>
        <mxCell id="l81J1AIuOaPKeWYcrtHB-67" value="" style="endArrow=none;html=1;rounded=0;entryX=0.5;entryY=0;entryDx=0;entryDy=0;" edge="1" parent="1" source="l81J1AIuOaPKeWYcrtHB-43" target="l81J1AIuOaPKeWYcrtHB-6">
          <mxGeometry relative="1" as="geometry">
            <mxPoint x="500" y="410" as="sourcePoint" />
            <mxPoint x="660" y="410" as="targetPoint" />
          </mxGeometry>
        </mxCell>
        <mxCell id="l81J1AIuOaPKeWYcrtHB-70" value="" style="endArrow=none;html=1;rounded=0;exitX=0.5;exitY=1;exitDx=0;exitDy=0;entryX=1;entryY=0.5;entryDx=0;entryDy=0;" edge="1" parent="1" source="l81J1AIuOaPKeWYcrtHB-1" target="l81J1AIuOaPKeWYcrtHB-55">
          <mxGeometry relative="1" as="geometry">
            <mxPoint x="420" y="670" as="sourcePoint" />
            <mxPoint x="552" y="655" as="targetPoint" />
          </mxGeometry>
        </mxCell>
        <mxCell id="l81J1AIuOaPKeWYcrtHB-71" value="" style="endArrow=none;html=1;rounded=0;exitX=0.5;exitY=1;exitDx=0;exitDy=0;" edge="1" parent="1" source="l81J1AIuOaPKeWYcrtHB-1" target="l81J1AIuOaPKeWYcrtHB-54">
          <mxGeometry relative="1" as="geometry">
            <mxPoint x="430" y="680" as="sourcePoint" />
            <mxPoint x="600" y="710" as="targetPoint" />
          </mxGeometry>
        </mxCell>
        <mxCell id="l81J1AIuOaPKeWYcrtHB-72" value="" style="endArrow=none;html=1;rounded=0;exitX=0.5;exitY=1;exitDx=0;exitDy=0;" edge="1" parent="1" source="l81J1AIuOaPKeWYcrtHB-1" target="l81J1AIuOaPKeWYcrtHB-58">
          <mxGeometry relative="1" as="geometry">
            <mxPoint x="440" y="690" as="sourcePoint" />
            <mxPoint x="572" y="675" as="targetPoint" />
          </mxGeometry>
        </mxCell>
        <mxCell id="l81J1AIuOaPKeWYcrtHB-73" value="" style="endArrow=none;html=1;rounded=0;exitX=0.5;exitY=1;exitDx=0;exitDy=0;" edge="1" parent="1" source="l81J1AIuOaPKeWYcrtHB-1" target="l81J1AIuOaPKeWYcrtHB-56">
          <mxGeometry relative="1" as="geometry">
            <mxPoint x="450" y="700" as="sourcePoint" />
            <mxPoint x="582" y="685" as="targetPoint" />
          </mxGeometry>
        </mxCell>
        <mxCell id="l81J1AIuOaPKeWYcrtHB-74" value="" style="endArrow=none;html=1;rounded=0;exitX=0.5;exitY=1;exitDx=0;exitDy=0;" edge="1" parent="1" source="l81J1AIuOaPKeWYcrtHB-1" target="l81J1AIuOaPKeWYcrtHB-57">
          <mxGeometry relative="1" as="geometry">
            <mxPoint x="460" y="710" as="sourcePoint" />
            <mxPoint x="592" y="695" as="targetPoint" />
          </mxGeometry>
        </mxCell>
        <mxCell id="l81J1AIuOaPKeWYcrtHB-75" value="" style="endArrow=none;html=1;rounded=0;exitX=0.5;exitY=1;exitDx=0;exitDy=0;" edge="1" parent="1" source="l81J1AIuOaPKeWYcrtHB-1" target="l81J1AIuOaPKeWYcrtHB-53">
          <mxGeometry relative="1" as="geometry">
            <mxPoint x="470" y="720" as="sourcePoint" />
            <mxPoint x="602" y="705" as="targetPoint" />
          </mxGeometry>
        </mxCell>
        <mxCell id="l81J1AIuOaPKeWYcrtHB-76" value="" style="endArrow=none;html=1;rounded=0;entryX=0;entryY=0.5;entryDx=0;entryDy=0;" edge="1" parent="1" source="l81J1AIuOaPKeWYcrtHB-51" target="l81J1AIuOaPKeWYcrtHB-1">
          <mxGeometry relative="1" as="geometry">
            <mxPoint x="480" y="730" as="sourcePoint" />
            <mxPoint x="612" y="715" as="targetPoint" />
          </mxGeometry>
        </mxCell>
        <mxCell id="l81J1AIuOaPKeWYcrtHB-77" value="tipo_cta" style="ellipse;whiteSpace=wrap;html=1;align=center;fillColor=#ffff88;strokeColor=#36393d;" vertex="1" parent="1">
          <mxGeometry x="-170" y="350" width="100" height="40" as="geometry" />
        </mxCell>
        <mxCell id="l81J1AIuOaPKeWYcrtHB-78" value="tipo_moneda" style="ellipse;whiteSpace=wrap;html=1;align=center;fillColor=#ffff88;strokeColor=#36393d;" vertex="1" parent="1">
          <mxGeometry x="-10" y="540" width="100" height="40" as="geometry" />
        </mxCell>
        <mxCell id="l81J1AIuOaPKeWYcrtHB-79" value="fecha_apertura" style="ellipse;whiteSpace=wrap;html=1;align=center;fillColor=#ffff88;strokeColor=#36393d;" vertex="1" parent="1">
          <mxGeometry x="162.5" y="430" width="100" height="40" as="geometry" />
        </mxCell>
        <mxCell id="l81J1AIuOaPKeWYcrtHB-80" value="estado" style="ellipse;whiteSpace=wrap;html=1;align=center;fillColor=#ffff88;strokeColor=#36393d;" vertex="1" parent="1">
          <mxGeometry x="110" y="510" width="100" height="40" as="geometry" />
        </mxCell>
        <mxCell id="l81J1AIuOaPKeWYcrtHB-81" value="monto_min" style="ellipse;whiteSpace=wrap;html=1;align=center;fillColor=#ffff88;strokeColor=#36393d;" vertex="1" parent="1">
          <mxGeometry x="-160" y="510" width="100" height="40" as="geometry" />
        </mxCell>
        <mxCell id="l81J1AIuOaPKeWYcrtHB-82" value="descipcion" style="ellipse;whiteSpace=wrap;html=1;align=center;fillColor=#ffff88;strokeColor=#36393d;" vertex="1" parent="1">
          <mxGeometry x="-210" y="430" width="100" height="40" as="geometry" />
        </mxCell>
        <mxCell id="l81J1AIuOaPKeWYcrtHB-84" value="" style="endArrow=none;html=1;rounded=0;exitX=1;exitY=0.5;exitDx=0;exitDy=0;entryX=0;entryY=0.5;entryDx=0;entryDy=0;" edge="1" parent="1" source="l81J1AIuOaPKeWYcrtHB-29" target="l81J1AIuOaPKeWYcrtHB-7">
          <mxGeometry relative="1" as="geometry">
            <mxPoint x="430" y="185" as="sourcePoint" />
            <mxPoint x="562" y="170" as="targetPoint" />
          </mxGeometry>
        </mxCell>
        <mxCell id="l81J1AIuOaPKeWYcrtHB-85" value="N" style="edgeLabel;html=1;align=center;verticalAlign=middle;resizable=0;points=[];" vertex="1" connectable="0" parent="l81J1AIuOaPKeWYcrtHB-84">
          <mxGeometry x="-0.7536" y="1" relative="1" as="geometry">
            <mxPoint as="offset" />
          </mxGeometry>
        </mxCell>
        <mxCell id="l81J1AIuOaPKeWYcrtHB-86" value="" style="endArrow=none;html=1;rounded=0;fillColor=#ffff88;strokeColor=#36393d;" edge="1" parent="1" source="l81J1AIuOaPKeWYcrtHB-77" target="l81J1AIuOaPKeWYcrtHB-5">
          <mxGeometry relative="1" as="geometry">
            <mxPoint x="-70" y="445" as="sourcePoint" />
            <mxPoint x="62" y="430" as="targetPoint" />
          </mxGeometry>
        </mxCell>
        <mxCell id="l81J1AIuOaPKeWYcrtHB-87" value="" style="endArrow=none;html=1;rounded=0;fillColor=#ffff88;strokeColor=#36393d;" edge="1" parent="1" source="l81J1AIuOaPKeWYcrtHB-81" target="l81J1AIuOaPKeWYcrtHB-5">
          <mxGeometry relative="1" as="geometry">
            <mxPoint x="-60" y="380" as="sourcePoint" />
            <mxPoint x="10" y="380" as="targetPoint" />
          </mxGeometry>
        </mxCell>
        <mxCell id="l81J1AIuOaPKeWYcrtHB-88" value="" style="endArrow=none;html=1;rounded=0;fillColor=#ffff88;strokeColor=#36393d;" edge="1" parent="1" source="l81J1AIuOaPKeWYcrtHB-82" target="l81J1AIuOaPKeWYcrtHB-5">
          <mxGeometry relative="1" as="geometry">
            <mxPoint x="-50" y="390" as="sourcePoint" />
            <mxPoint x="20" y="390" as="targetPoint" />
          </mxGeometry>
        </mxCell>
        <mxCell id="l81J1AIuOaPKeWYcrtHB-89" value="" style="endArrow=none;html=1;rounded=0;fillColor=#ffff88;strokeColor=#36393d;" edge="1" parent="1" source="l81J1AIuOaPKeWYcrtHB-78" target="l81J1AIuOaPKeWYcrtHB-5">
          <mxGeometry relative="1" as="geometry">
            <mxPoint x="-40" y="400" as="sourcePoint" />
            <mxPoint x="30" y="400" as="targetPoint" />
          </mxGeometry>
        </mxCell>
        <mxCell id="l81J1AIuOaPKeWYcrtHB-90" value="" style="endArrow=none;html=1;rounded=0;fillColor=#ffff88;strokeColor=#36393d;" edge="1" parent="1" source="l81J1AIuOaPKeWYcrtHB-5" target="l81J1AIuOaPKeWYcrtHB-79">
          <mxGeometry relative="1" as="geometry">
            <mxPoint x="10" y="400" as="sourcePoint" />
            <mxPoint x="40" y="410" as="targetPoint" />
          </mxGeometry>
        </mxCell>
        <mxCell id="l81J1AIuOaPKeWYcrtHB-91" value="" style="endArrow=none;html=1;rounded=0;fillColor=#ffff88;strokeColor=#36393d;" edge="1" parent="1" source="l81J1AIuOaPKeWYcrtHB-5" target="l81J1AIuOaPKeWYcrtHB-80">
          <mxGeometry relative="1" as="geometry">
            <mxPoint x="-20" y="420" as="sourcePoint" />
            <mxPoint x="50" y="420" as="targetPoint" />
          </mxGeometry>
        </mxCell>
        <mxCell id="l81J1AIuOaPKeWYcrtHB-92" value="tipo_gestion" style="ellipse;whiteSpace=wrap;html=1;align=center;fillColor=#ffff88;strokeColor=#36393d;" vertex="1" parent="1">
          <mxGeometry x="-110" width="100" height="40" as="geometry" />
        </mxCell>
        <mxCell id="l81J1AIuOaPKeWYcrtHB-93" value="monto" style="ellipse;whiteSpace=wrap;html=1;align=center;fillColor=#ffff88;strokeColor=#36393d;" vertex="1" parent="1">
          <mxGeometry x="-200" y="50" width="100" height="40" as="geometry" />
        </mxCell>
        <mxCell id="l81J1AIuOaPKeWYcrtHB-94" value="descripcion" style="ellipse;whiteSpace=wrap;html=1;align=center;fillColor=#ffff88;strokeColor=#36393d;" vertex="1" parent="1">
          <mxGeometry x="-220" y="110" width="100" height="40" as="geometry" />
        </mxCell>
        <mxCell id="l81J1AIuOaPKeWYcrtHB-95" value="fecha_transaccion" style="ellipse;whiteSpace=wrap;html=1;align=center;fillColor=#ffff88;strokeColor=#36393d;" vertex="1" parent="1">
          <mxGeometry x="-170" y="190" width="110" height="40" as="geometry" />
        </mxCell>
        <mxCell id="l81J1AIuOaPKeWYcrtHB-96" value="tipo_mov" style="ellipse;whiteSpace=wrap;html=1;align=center;fillColor=#ffff88;strokeColor=#36393d;" vertex="1" parent="1">
          <mxGeometry y="-10" width="100" height="40" as="geometry" />
        </mxCell>
        <mxCell id="l81J1AIuOaPKeWYcrtHB-97" value="monto" style="ellipse;whiteSpace=wrap;html=1;align=center;fillColor=#ffff88;strokeColor=#36393d;" vertex="1" parent="1">
          <mxGeometry x="335" y="-110" width="100" height="40" as="geometry" />
        </mxCell>
        <mxCell id="l81J1AIuOaPKeWYcrtHB-98" value="descripcion" style="ellipse;whiteSpace=wrap;html=1;align=center;fillColor=#ffff88;strokeColor=#36393d;" vertex="1" parent="1">
          <mxGeometry x="210" y="-80" width="100" height="40" as="geometry" />
        </mxCell>
        <mxCell id="l81J1AIuOaPKeWYcrtHB-99" value="fecha_transaccion" style="ellipse;whiteSpace=wrap;html=1;align=center;fillColor=#ffff88;strokeColor=#36393d;" vertex="1" parent="1">
          <mxGeometry x="180" y="10" width="110" height="40" as="geometry" />
        </mxCell>
        <mxCell id="l81J1AIuOaPKeWYcrtHB-100" value="tipo_gestion" style="ellipse;whiteSpace=wrap;html=1;align=center;fillColor=#ffff88;strokeColor=#36393d;" vertex="1" parent="1">
          <mxGeometry x="520" y="30" width="100" height="40" as="geometry" />
        </mxCell>
        <mxCell id="l81J1AIuOaPKeWYcrtHB-101" value="tipo_mov" style="ellipse;whiteSpace=wrap;html=1;align=center;fillColor=#ffff88;strokeColor=#36393d;" vertex="1" parent="1">
          <mxGeometry x="440" y="-90" width="100" height="40" as="geometry" />
        </mxCell>
        <mxCell id="l81J1AIuOaPKeWYcrtHB-102" value="" style="endArrow=none;html=1;rounded=0;" edge="1" parent="1" source="l81J1AIuOaPKeWYcrtHB-92" target="l81J1AIuOaPKeWYcrtHB-4">
          <mxGeometry relative="1" as="geometry">
            <mxPoint x="-70" y="80" as="sourcePoint" />
            <mxPoint y="80" as="targetPoint" />
          </mxGeometry>
        </mxCell>
        <mxCell id="l81J1AIuOaPKeWYcrtHB-103" value="" style="endArrow=none;html=1;rounded=0;" edge="1" parent="1" source="l81J1AIuOaPKeWYcrtHB-93" target="l81J1AIuOaPKeWYcrtHB-4">
          <mxGeometry relative="1" as="geometry">
            <mxPoint x="-34" y="49" as="sourcePoint" />
            <mxPoint x="43" y="140" as="targetPoint" />
          </mxGeometry>
        </mxCell>
        <mxCell id="l81J1AIuOaPKeWYcrtHB-104" value="" style="endArrow=none;html=1;rounded=0;" edge="1" parent="1" source="l81J1AIuOaPKeWYcrtHB-96" target="l81J1AIuOaPKeWYcrtHB-4">
          <mxGeometry relative="1" as="geometry">
            <mxPoint x="-24" y="59" as="sourcePoint" />
            <mxPoint x="53" y="150" as="targetPoint" />
          </mxGeometry>
        </mxCell>
        <mxCell id="l81J1AIuOaPKeWYcrtHB-105" value="" style="endArrow=none;html=1;rounded=0;" edge="1" parent="1" source="l81J1AIuOaPKeWYcrtHB-94" target="l81J1AIuOaPKeWYcrtHB-4">
          <mxGeometry relative="1" as="geometry">
            <mxPoint x="-14" y="69" as="sourcePoint" />
            <mxPoint x="63" y="160" as="targetPoint" />
          </mxGeometry>
        </mxCell>
        <mxCell id="l81J1AIuOaPKeWYcrtHB-106" value="" style="endArrow=none;html=1;rounded=0;" edge="1" parent="1" source="l81J1AIuOaPKeWYcrtHB-95" target="l81J1AIuOaPKeWYcrtHB-4">
          <mxGeometry relative="1" as="geometry">
            <mxPoint x="-4" y="79" as="sourcePoint" />
            <mxPoint x="73" y="170" as="targetPoint" />
          </mxGeometry>
        </mxCell>
        <mxCell id="l81J1AIuOaPKeWYcrtHB-107" style="edgeStyle=orthogonalEdgeStyle;rounded=0;orthogonalLoop=1;jettySize=auto;html=1;exitX=0.5;exitY=1;exitDx=0;exitDy=0;fillColor=#ffff88;strokeColor=#36393d;" edge="1" parent="1" source="l81J1AIuOaPKeWYcrtHB-97" target="l81J1AIuOaPKeWYcrtHB-97">
          <mxGeometry relative="1" as="geometry" />
        </mxCell>
        <mxCell id="l81J1AIuOaPKeWYcrtHB-109" value="" style="endArrow=none;html=1;rounded=0;" edge="1" parent="1" source="l81J1AIuOaPKeWYcrtHB-97" target="l81J1AIuOaPKeWYcrtHB-29">
          <mxGeometry relative="1" as="geometry">
            <mxPoint x="423.5" y="-50.5" as="sourcePoint" />
            <mxPoint x="336.5" y="70.5" as="targetPoint" />
          </mxGeometry>
        </mxCell>
        <mxCell id="l81J1AIuOaPKeWYcrtHB-110" value="" style="endArrow=none;html=1;rounded=0;" edge="1" parent="1" source="l81J1AIuOaPKeWYcrtHB-101" target="l81J1AIuOaPKeWYcrtHB-29">
          <mxGeometry relative="1" as="geometry">
            <mxPoint x="390" y="-60" as="sourcePoint" />
            <mxPoint x="400" y="110" as="targetPoint" />
          </mxGeometry>
        </mxCell>
        <mxCell id="l81J1AIuOaPKeWYcrtHB-111" value="" style="endArrow=none;html=1;rounded=0;" edge="1" parent="1" source="l81J1AIuOaPKeWYcrtHB-100" target="l81J1AIuOaPKeWYcrtHB-29">
          <mxGeometry relative="1" as="geometry">
            <mxPoint x="489" y="-40" as="sourcePoint" />
            <mxPoint x="406" y="110" as="targetPoint" />
          </mxGeometry>
        </mxCell>
        <mxCell id="l81J1AIuOaPKeWYcrtHB-112" value="" style="endArrow=none;html=1;rounded=0;" edge="1" parent="1" source="l81J1AIuOaPKeWYcrtHB-98" target="l81J1AIuOaPKeWYcrtHB-29">
          <mxGeometry relative="1" as="geometry">
            <mxPoint x="499" y="-30" as="sourcePoint" />
            <mxPoint x="416" y="120" as="targetPoint" />
          </mxGeometry>
        </mxCell>
        <mxCell id="l81J1AIuOaPKeWYcrtHB-113" value="" style="endArrow=none;html=1;rounded=0;" edge="1" parent="1" source="l81J1AIuOaPKeWYcrtHB-99" target="l81J1AIuOaPKeWYcrtHB-29">
          <mxGeometry relative="1" as="geometry">
            <mxPoint x="509" y="-20" as="sourcePoint" />
            <mxPoint x="426" y="130" as="targetPoint" />
          </mxGeometry>
        </mxCell>
        <mxCell id="l81J1AIuOaPKeWYcrtHB-114" value="Pagos" style="ellipse;whiteSpace=wrap;html=1;align=center;fillColor=#ffff88;strokeColor=#36393d;" vertex="1" parent="1">
          <mxGeometry x="510" y="-40" width="100" height="40" as="geometry" />
        </mxCell>
        <mxCell id="l81J1AIuOaPKeWYcrtHB-115" value="" style="endArrow=none;html=1;rounded=0;" edge="1" parent="1" source="l81J1AIuOaPKeWYcrtHB-114" target="l81J1AIuOaPKeWYcrtHB-29">
          <mxGeometry relative="1" as="geometry">
            <mxPoint x="489" y="-40" as="sourcePoint" />
            <mxPoint x="406" y="110" as="targetPoint" />
          </mxGeometry>
        </mxCell>
        <mxCell id="l81J1AIuOaPKeWYcrtHB-116" value="direccion" style="ellipse;whiteSpace=wrap;html=1;align=center;fillColor=#ffff88;strokeColor=#36393d;" vertex="1" parent="1">
          <mxGeometry x="820" y="-60" width="100" height="40" as="geometry" />
        </mxCell>
        <mxCell id="l81J1AIuOaPKeWYcrtHB-117" value="nombre" style="ellipse;whiteSpace=wrap;html=1;align=center;fillColor=#ffff88;strokeColor=#36393d;" vertex="1" parent="1">
          <mxGeometry x="700" y="-40" width="100" height="40" as="geometry" />
        </mxCell>
        <mxCell id="l81J1AIuOaPKeWYcrtHB-118" value="telefono" style="ellipse;whiteSpace=wrap;html=1;align=center;fillColor=#ffff88;strokeColor=#36393d;" vertex="1" parent="1">
          <mxGeometry x="930" width="100" height="40" as="geometry" />
        </mxCell>
        <mxCell id="l81J1AIuOaPKeWYcrtHB-119" style="edgeStyle=orthogonalEdgeStyle;rounded=0;orthogonalLoop=1;jettySize=auto;html=1;exitX=0.5;exitY=1;exitDx=0;exitDy=0;fillColor=#ffff88;strokeColor=#36393d;" edge="1" parent="1" source="l81J1AIuOaPKeWYcrtHB-116" target="l81J1AIuOaPKeWYcrtHB-116">
          <mxGeometry relative="1" as="geometry" />
        </mxCell>
        <mxCell id="l81J1AIuOaPKeWYcrtHB-120" value="codigo_comercio" style="ellipse;whiteSpace=wrap;html=1;align=center;fillColor=#ffff88;strokeColor=#36393d;" vertex="1" parent="1">
          <mxGeometry x="940" y="100" width="110" height="40" as="geometry" />
        </mxCell>
        <mxCell id="l81J1AIuOaPKeWYcrtHB-121" value="" style="endArrow=none;html=1;rounded=0;" edge="1" parent="1" source="l81J1AIuOaPKeWYcrtHB-117" target="l81J1AIuOaPKeWYcrtHB-2">
          <mxGeometry relative="1" as="geometry">
            <mxPoint x="548" y="8" as="sourcePoint" />
            <mxPoint x="420" y="110" as="targetPoint" />
          </mxGeometry>
        </mxCell>
        <mxCell id="l81J1AIuOaPKeWYcrtHB-122" value="" style="endArrow=none;html=1;rounded=0;" edge="1" parent="1" source="l81J1AIuOaPKeWYcrtHB-116" target="l81J1AIuOaPKeWYcrtHB-2">
          <mxGeometry relative="1" as="geometry">
            <mxPoint x="763" y="10" as="sourcePoint" />
            <mxPoint x="777" y="110" as="targetPoint" />
          </mxGeometry>
        </mxCell>
        <mxCell id="l81J1AIuOaPKeWYcrtHB-123" value="" style="endArrow=none;html=1;rounded=0;" edge="1" parent="1" source="l81J1AIuOaPKeWYcrtHB-118" target="l81J1AIuOaPKeWYcrtHB-2">
          <mxGeometry relative="1" as="geometry">
            <mxPoint x="773" y="20" as="sourcePoint" />
            <mxPoint x="787" y="130" as="targetPoint" />
          </mxGeometry>
        </mxCell>
        <mxCell id="l81J1AIuOaPKeWYcrtHB-124" value="" style="endArrow=none;html=1;rounded=0;" edge="1" parent="1" source="l81J1AIuOaPKeWYcrtHB-120" target="l81J1AIuOaPKeWYcrtHB-2">
          <mxGeometry relative="1" as="geometry">
            <mxPoint x="783" y="30" as="sourcePoint" />
            <mxPoint x="797" y="130" as="targetPoint" />
          </mxGeometry>
        </mxCell>
        <mxCell id="l81J1AIuOaPKeWYcrtHB-125" value="monto_base" style="ellipse;whiteSpace=wrap;html=1;align=center;fillColor=#ffff88;strokeColor=#36393d;" vertex="1" parent="1">
          <mxGeometry x="980" y="240" width="100" height="40" as="geometry" />
        </mxCell>
        <mxCell id="l81J1AIuOaPKeWYcrtHB-126" value="fecha_exp" style="ellipse;whiteSpace=wrap;html=1;align=center;fillColor=#ffff88;strokeColor=#36393d;" vertex="1" parent="1">
          <mxGeometry x="970" y="560" width="100" height="40" as="geometry" />
        </mxCell>
        <mxCell id="l81J1AIuOaPKeWYcrtHB-127" value="nombre" style="ellipse;whiteSpace=wrap;html=1;align=center;fillColor=#ffff88;strokeColor=#36393d;" vertex="1" parent="1">
          <mxGeometry x="850" y="220" width="110" height="40" as="geometry" />
        </mxCell>
        <mxCell id="l81J1AIuOaPKeWYcrtHB-128" value="num_tarjeta" style="ellipse;whiteSpace=wrap;html=1;align=center;fillColor=#ffff88;strokeColor=#36393d;" vertex="1" parent="1">
          <mxGeometry x="1050" y="460" width="100" height="40" as="geometry" />
        </mxCell>
        <mxCell id="l81J1AIuOaPKeWYcrtHB-129" value="tipo" style="ellipse;whiteSpace=wrap;html=1;align=center;fillColor=#ffff88;strokeColor=#36393d;" vertex="1" parent="1">
          <mxGeometry x="1030" y="300" width="100" height="40" as="geometry" />
        </mxCell>
        <mxCell id="l81J1AIuOaPKeWYcrtHB-130" style="edgeStyle=orthogonalEdgeStyle;rounded=0;orthogonalLoop=1;jettySize=auto;html=1;exitX=0.5;exitY=1;exitDx=0;exitDy=0;fillColor=#ffff88;strokeColor=#36393d;" edge="1" parent="1" source="l81J1AIuOaPKeWYcrtHB-125" target="l81J1AIuOaPKeWYcrtHB-125">
          <mxGeometry relative="1" as="geometry" />
        </mxCell>
        <mxCell id="l81J1AIuOaPKeWYcrtHB-131" value="descripcion" style="ellipse;whiteSpace=wrap;html=1;align=center;fillColor=#ffff88;strokeColor=#36393d;" vertex="1" parent="1">
          <mxGeometry x="1050" y="380" width="100" height="40" as="geometry" />
        </mxCell>
        <mxCell id="l81J1AIuOaPKeWYcrtHB-132" value="fecha_corte" style="ellipse;whiteSpace=wrap;html=1;align=center;fillColor=#ffff88;strokeColor=#36393d;" vertex="1" parent="1">
          <mxGeometry x="690" y="530" width="100" height="40" as="geometry" />
        </mxCell>
        <mxCell id="l81J1AIuOaPKeWYcrtHB-133" value="monto_max" style="ellipse;whiteSpace=wrap;html=1;align=center;fillColor=#ffff88;strokeColor=#36393d;" vertex="1" parent="1">
          <mxGeometry x="830" y="570" width="100" height="40" as="geometry" />
        </mxCell>
        <mxCell id="l81J1AIuOaPKeWYcrtHB-134" value="fecha_pago" style="ellipse;whiteSpace=wrap;html=1;align=center;fillColor=#ffff88;strokeColor=#36393d;" vertex="1" parent="1">
          <mxGeometry x="650" y="450" width="100" height="40" as="geometry" />
        </mxCell>
        <mxCell id="l81J1AIuOaPKeWYcrtHB-135" value="fecha_emision" style="ellipse;whiteSpace=wrap;html=1;align=center;fillColor=#ffff88;strokeColor=#36393d;" vertex="1" parent="1">
          <mxGeometry x="1010" y="510" width="100" height="40" as="geometry" />
        </mxCell>
        <mxCell id="l81J1AIuOaPKeWYcrtHB-136" value="" style="endArrow=none;html=1;rounded=0;" edge="1" parent="1" source="l81J1AIuOaPKeWYcrtHB-3" target="l81J1AIuOaPKeWYcrtHB-134">
          <mxGeometry relative="1" as="geometry">
            <mxPoint x="660" y="470" as="sourcePoint" />
            <mxPoint x="820" y="470" as="targetPoint" />
          </mxGeometry>
        </mxCell>
        <mxCell id="l81J1AIuOaPKeWYcrtHB-137" value="" style="endArrow=none;html=1;rounded=0;fillColor=#f9f7ed;strokeColor=#36393d;" edge="1" parent="1" source="l81J1AIuOaPKeWYcrtHB-3" target="l81J1AIuOaPKeWYcrtHB-131">
          <mxGeometry relative="1" as="geometry">
            <mxPoint x="766" y="400" as="sourcePoint" />
            <mxPoint x="723" y="461" as="targetPoint" />
          </mxGeometry>
        </mxCell>
        <mxCell id="l81J1AIuOaPKeWYcrtHB-138" value="" style="endArrow=none;html=1;rounded=0;" edge="1" parent="1" source="l81J1AIuOaPKeWYcrtHB-3" target="l81J1AIuOaPKeWYcrtHB-135">
          <mxGeometry relative="1" as="geometry">
            <mxPoint x="776" y="410" as="sourcePoint" />
            <mxPoint x="733" y="471" as="targetPoint" />
          </mxGeometry>
        </mxCell>
        <mxCell id="l81J1AIuOaPKeWYcrtHB-139" value="" style="endArrow=none;html=1;rounded=0;" edge="1" parent="1" source="l81J1AIuOaPKeWYcrtHB-3" target="l81J1AIuOaPKeWYcrtHB-128">
          <mxGeometry relative="1" as="geometry">
            <mxPoint x="786" y="420" as="sourcePoint" />
            <mxPoint x="743" y="481" as="targetPoint" />
          </mxGeometry>
        </mxCell>
        <mxCell id="l81J1AIuOaPKeWYcrtHB-140" value="" style="endArrow=none;html=1;rounded=0;" edge="1" parent="1" source="l81J1AIuOaPKeWYcrtHB-3" target="l81J1AIuOaPKeWYcrtHB-126">
          <mxGeometry relative="1" as="geometry">
            <mxPoint x="796" y="430" as="sourcePoint" />
            <mxPoint x="753" y="491" as="targetPoint" />
          </mxGeometry>
        </mxCell>
        <mxCell id="l81J1AIuOaPKeWYcrtHB-141" value="" style="endArrow=none;html=1;rounded=0;" edge="1" parent="1" source="l81J1AIuOaPKeWYcrtHB-3" target="l81J1AIuOaPKeWYcrtHB-133">
          <mxGeometry relative="1" as="geometry">
            <mxPoint x="806" y="440" as="sourcePoint" />
            <mxPoint x="763" y="501" as="targetPoint" />
          </mxGeometry>
        </mxCell>
        <mxCell id="l81J1AIuOaPKeWYcrtHB-142" value="" style="endArrow=none;html=1;rounded=0;" edge="1" parent="1" source="l81J1AIuOaPKeWYcrtHB-3" target="l81J1AIuOaPKeWYcrtHB-132">
          <mxGeometry relative="1" as="geometry">
            <mxPoint x="816" y="450" as="sourcePoint" />
            <mxPoint x="773" y="511" as="targetPoint" />
          </mxGeometry>
        </mxCell>
        <mxCell id="l81J1AIuOaPKeWYcrtHB-143" value="" style="endArrow=none;html=1;rounded=0;fillColor=#f9f7ed;strokeColor=#36393d;" edge="1" parent="1" source="l81J1AIuOaPKeWYcrtHB-3" target="l81J1AIuOaPKeWYcrtHB-129">
          <mxGeometry relative="1" as="geometry">
            <mxPoint x="830" y="385" as="sourcePoint" />
            <mxPoint x="1061" y="406" as="targetPoint" />
          </mxGeometry>
        </mxCell>
        <mxCell id="l81J1AIuOaPKeWYcrtHB-144" value="" style="endArrow=none;html=1;rounded=0;" edge="1" parent="1" source="l81J1AIuOaPKeWYcrtHB-3" target="l81J1AIuOaPKeWYcrtHB-125">
          <mxGeometry relative="1" as="geometry">
            <mxPoint x="840" y="395" as="sourcePoint" />
            <mxPoint x="1071" y="416" as="targetPoint" />
          </mxGeometry>
        </mxCell>
        <mxCell id="l81J1AIuOaPKeWYcrtHB-145" value="" style="endArrow=none;html=1;rounded=0;" edge="1" parent="1" source="l81J1AIuOaPKeWYcrtHB-3" target="l81J1AIuOaPKeWYcrtHB-127">
          <mxGeometry relative="1" as="geometry">
            <mxPoint x="850" y="405" as="sourcePoint" />
            <mxPoint x="1081" y="426" as="targetPoint" />
          </mxGeometry>
        </mxCell>
      </root>
    </mxGraphModel>
  </diagram>
</mxfile>
